<svg width="8" height="10" viewBox="0 0 8 10" fill="none" xmlns="http://www.w3.org/2000/svg">
<path d="M0.462 5.296H1.456V0.298C1.81067 0.214 2.18867 0.158 2.59 0.129999C3.00067 0.102 3.40667 0.0879999 3.808 0.0879999C4.23733 0.0879999 4.65733 0.13 5.068 0.213999C5.488 0.297999 5.85667 0.451999 6.174 0.676C6.50067 0.9 6.762 1.20333 6.958 1.586C7.154 1.96867 7.252 2.45867 7.252 3.056C7.252 3.644 7.14933 4.134 6.944 4.526C6.748 4.918 6.482 5.23533 6.146 5.478C5.81933 5.72067 5.44133 5.89333 5.012 5.996C4.592 6.09867 4.16267 6.15467 3.724 6.164L2.618 6.178V7.172H4.942V8.04H2.618V10H1.456V8.04H0.462V7.172H1.456V6.164H0.462V5.296ZM3.836 1.068C3.59333 1.068 3.36 1.07733 3.136 1.096C2.92133 1.10533 2.74867 1.124 2.618 1.152V5.212H3.682C3.962 5.212 4.242 5.184 4.522 5.128C4.802 5.072 5.054 4.96467 5.278 4.806C5.502 4.64733 5.684 4.43267 5.824 4.162C5.964 3.882 6.02933 3.518 6.02 3.07C6.02933 2.68733 5.97333 2.37 5.852 2.118C5.74 1.85667 5.58133 1.65133 5.376 1.502C5.18 1.34333 4.94667 1.23133 4.676 1.166C4.41467 1.10067 4.13467 1.068 3.836 1.068Z" fill="#333333"/>
</svg>
